<?xml version="1.0" encoding="UTF-8" standalone="no"?>
<svg
   xmlns:dc="http://purl.org/dc/elements/1.1/"
   xmlns:cc="http://creativecommons.org/ns#"
   xmlns:rdf="http://www.w3.org/1999/02/22-rdf-syntax-ns#"
   xmlns:svg="http://www.w3.org/2000/svg"
   xmlns="http://www.w3.org/2000/svg"
   xmlns:sodipodi="http://sodipodi.sourceforge.net/DTD/sodipodi-0.dtd"
   xmlns:inkscape="http://www.inkscape.org/namespaces/inkscape"
   inkscape:version="1.0beta1 (32d4812, 2019-09-19)"
   sodipodi:docname="logo.svg"
   id="svg877"
   version="1.1"
   width="105.6551"
   height="89.180603"
   viewBox="0 0 27.954823 23.595968">
  <metadata
     id="metadata881">
    <rdf:RDF>
      <cc:Work
         rdf:about="">
        <dc:format>image/svg+xml</dc:format>
        <dc:type
           rdf:resource="http://purl.org/dc/dcmitype/StillImage" />
        <dc:title></dc:title>
      </cc:Work>
    </rdf:RDF>
  </metadata>
  <sodipodi:namedview
     inkscape:current-layer="svg877"
     inkscape:window-maximized="0"
     inkscape:window-y="23"
     inkscape:window-x="0"
     inkscape:cy="40.384097"
     inkscape:cx="43.422636"
     inkscape:zoom="5.0891204"
     showgrid="false"
     id="namedview879"
     inkscape:window-height="855"
     inkscape:window-width="1440"
     inkscape:pageshadow="2"
     inkscape:pageopacity="0"
     guidetolerance="10"
     gridtolerance="10"
     objecttolerance="10"
     borderopacity="1"
     inkscape:document-rotation="0"
     bordercolor="#666666"
     pagecolor="#ffffff" />
  <defs
     id="defs845">
    <filter
       height="1.4241414"
       y="-0.21207069"
       width="1.0254395"
       x="-0.012719746"
       color-interpolation-filters="sRGB"
       id="d">
      <feGaussianBlur
         id="feGaussianBlur833"
         stdDeviation="0.53"
         result="blur" />
    </filter>
    <filter
       height="1.1690198"
       y="-0.084509902"
       width="1.0457423"
       x="-0.022871142"
       color-interpolation-filters="sRGB"
       id="c">
      <feGaussianBlur
         id="feGaussianBlur836"
         stdDeviation="0.95295473"
         result="blur" />
    </filter>
    <filter
       height="1.1318901"
       y="-0.065945022"
       width="1.0495155"
       x="-0.024757739"
       color-interpolation-filters="sRGB"
       id="b">
      <feGaussianBlur
         id="feGaussianBlur839"
         stdDeviation="1.0315725"
         result="blur" />
    </filter>
    <filter
       color-interpolation-filters="sRGB"
       id="a">
      <feGaussianBlur
         id="feGaussianBlur842"
         stdDeviation="1 1"
         result="blur" />
    </filter>
  </defs>
  <g
     style="opacity:1;filter:url(#b);stop-opacity:1"
     id="g851"
     filter="url(#b)"
     fill="#88c6ff"
     transform="matrix(0.26636,0,0,0.26636,-17.845417,-18.264632)">
    <g
       id="g849"
       word-spacing=".013"
       font-weight="400"
       stroke-width="1.329"
       letter-spacing="1.329"
       font-family="Aldo the Apache"
       font-size="53.173"
       aria-label="CLUB"
       style="line-height:1.25;-inkscape-font-specification:'IBM Plex Sans'">
      <path
         id="path847"
         d="m 83.7,101.476 v -4.57 h 7.894 v 6.491 L 86.4,108.59 H 69.473 V 76.214 l 5.608,-5.167 H 91.594 V 85.223 H 83.7 v -7.036 h -6.335 v 23.289 z m 12.339,7.114 V 71.047 h 7.866 v 30.429 h 11.009 v 7.114 z m 45.752,0 H 119.592 V 71.047 h 7.867 v 30.429 h 6.44 V 71.047 h 7.892 z m 27.682,-15.63 v 15.63 H 151.87 l -5.193,-5.193 v -32.35 h 16.097 l 5.323,4.96 v 10.332 l -3.687,2.96 z m -7.893,8.516 V 92.96 h -7.036 v 8.516 z M 160.308,85.95 v -7.763 h -5.764 v 7.763 z"
         style="-inkscape-font-specification:'Aldo the Apache'"
         inkscape:connector-curvature="0" />
    </g>
  </g>
  <g
     transform="translate(-2.0054176,-0.34063177)"
     id="g867"
     fill="#fff"
     word-spacing=".013"
     font-weight="400"
     stroke-width="1.329"
     letter-spacing="1.329"
     font-family="Aldo the Apache"
     font-size="53.173"
     style="line-height:1.25;-inkscape-font-specification:'IBM Plex Sans'"
     aria-label="CLUB">
    <path
       inkscape:connector-curvature="0"
       id="path865"
       style="-inkscape-font-specification:'Aldo the Apache'"
       d="M 6.454,9.105 V 7.888 H 8.556 V 9.617 L 7.173,11 H 2.664 V 2.376 L 4.158,1 H 8.556 V 4.776 H 6.454 V 2.902 H 4.767 V 9.105 Z M 9.74,11 V 1 h 2.096 v 8.105 h 2.932 V 11 Z m 12.187,0 H 16.014 V 1 h 2.096 v 8.105 h 1.715 V 1 h 2.102 z M 29.3,6.837 V 11 H 24.612 L 23.229,9.617 V 1 h 4.287 l 1.418,1.32 V 5.073 L 27.952,5.862 Z M 27.198,9.105 V 6.837 H 25.324 V 9.105 Z M 26.86,4.97 V 2.902 H 25.325 V 4.97 Z" />
  </g>
  <g
     id="g857"
     filter="url(#c)"
     stroke-width=".958"
     fill="#88c6ff"
     letter-spacing="0"
     font-family="IBM Plex Sans"
     font-size="38.33"
     transform="matrix(0.26637,0,0,0.26638,-17.847417,-18.960632)"
     style="line-height:1.25;-inkscape-font-specification:'IBM Plex Sans';opacity:1;filter:url(#c);stop-opacity:1"
     aria-label="AVENIR">
    <g
       id="g855"
       font-family="Aldo the Apache"
       font-weight="400">
      <path
         id="path853"
         d="m 75.163,143.891 h -5.69 v -22.777 l 4.362,-4.286 h 11.828 v 27.063 h -5.67 v -8.89 h -4.83 z m 4.83,-14.037 v -7.879 h -4.83 v 7.88 z m 18.752,-13.026 h 5.82 l -3.593,27.063 H 91.99 l -3.668,-27.063 h 5.914 l 2.246,20.793 z m 8.085,0 h 13.139 v 5.147 h -7.524 v 5.222 h 7.15 v 5.053 h -7.075 v 6.513 h 7.636 v 5.128 H 106.83 Z m 26.54,15.534 v -15.534 h 5.352 v 27.063 h -5.615 l -5.54,-15.534 v 15.534 h -5.315 v -27.063 h 5.615 z m 17.461,6.401 v 5.128 h -9.414 v -5.128 h 1.872 v -16.807 h -1.872 v -5.128 h 9.414 v 5.128 h -1.871 v 16.807 z m 12.952,5.128 -3.37,-9.788 h -1.497 v 9.788 h -5.67 v -23.245 l 4.117,-3.818 h 11.585 v 17.2 h -3.07 l 3.594,9.863 z m -0.506,-14.86 v -7.056 h -4.36 v 7.056 z"
         style="-inkscape-font-specification:'Aldo the Apache'"
         inkscape:connector-curvature="0" />
    </g>
  </g>
  <g
     transform="translate(-2.0054176,-0.34063177)"
     id="g871"
     stroke-width=".958"
     fill="#fff"
     letter-spacing="0"
     font-size="38.33"
     aria-label="AVENIR"
     font-family="Aldo the Apache"
     font-weight="400">
    <path
       inkscape:connector-curvature="0"
       id="path869"
       style="-inkscape-font-specification:'Aldo the Apache'"
       d="M 4.18,19.709 H 2.664 V 13.642 L 3.826,12.5 h 3.15 v 7.209 H 5.466 V 17.341 H 4.18 Z m 1.286,-3.74 V 13.871 H 4.18 V 15.97 Z M 10.461,12.5 h 1.55 l -0.956,7.209 H 8.662 L 7.685,12.5 H 9.26 l 0.598,5.539 z m 2.154,0 h 3.5 v 1.371 H 14.11 v 1.391 h 1.904 v 1.346 H 14.13 v 1.735 h 2.034 v 1.366 h -3.55 z m 7.069,4.138 V 12.5 h 1.426 v 7.209 h -1.495 l -1.476,-4.138 v 4.138 H 16.723 V 12.5 h 1.496 z m 4.652,1.705 v 1.366 h -2.508 v -1.366 h 0.499 V 13.866 H 21.828 V 12.5 h 2.508 v 1.366 h -0.499 v 4.477 z m 3.45,1.366 -0.898,-2.607 H 26.49 v 2.607 H 24.979 V 13.517 L 26.076,12.5 h 3.086 v 4.582 h -0.818 l 0.957,2.627 z m -0.135,-3.958 v -1.88 H 26.49 v 1.88 z" />
  </g>
  <g
     style="opacity:1;filter:url(#d);stop-opacity:1"
     id="g863"
     filter="url(#d)"
     fill="#88c6ff"
     transform="matrix(0.26642,0,0,0.26642,-17.850417,-24.359632)">
    <g
       id="g861"
       stroke-width=".202"
       letter-spacing="0"
       font-family="Avenir"
       font-size="8.062"
       aria-label="A BRIGHT FUTURE AWAITS"
       style="line-height:1.25;-inkscape-font-specification:Avenir">
      <path
         id="path859"
         d="m 70.995,176.55 h 2.475 l -1.233,-2.998 z m -0.846,2.032 h -0.677 l 2.483,-5.707 h 0.564 l 2.483,5.707 h -0.677 l -0.629,-1.499 h -2.918 z m 8.44,-0.532 H 79.7 q 0.315,0 0.589,-0.064 0.274,-0.065 0.475,-0.194 0.202,-0.137 0.315,-0.338 0.12,-0.202 0.12,-0.484 0,-0.564 -0.362,-0.838 -0.363,-0.274 -1.064,-0.274 h -1.185 z m 0,-2.676 h 1.169 q 0.21,0 0.41,-0.049 0.21,-0.056 0.372,-0.177 0.169,-0.12 0.274,-0.306 0.105,-0.194 0.105,-0.468 0,-0.089 -0.04,-0.25 -0.033,-0.161 -0.162,-0.322 -0.12,-0.161 -0.363,-0.274 -0.242,-0.121 -0.653,-0.121 H 78.59 Z m -0.58,-2.5 h 1.7 q 0.355,0 0.686,0.073 0.33,0.073 0.588,0.242 0.258,0.17 0.411,0.444 0.153,0.274 0.153,0.677 0,0.467 -0.266,0.806 -0.258,0.33 -0.741,0.443 v 0.016 q 0.604,0.049 0.943,0.428 0.347,0.37 0.347,1 0,0.136 -0.073,0.402 -0.064,0.267 -0.282,0.533 -0.218,0.258 -0.629,0.451 -0.411,0.193 -1.096,0.193 h -1.742 z m 5.666,2.524 h 1.032 q 0.387,0 0.653,-0.08 0.274,-0.081 0.435,-0.21 0.161,-0.137 0.234,-0.315 0.072,-0.185 0.072,-0.395 0,-0.201 -0.072,-0.378 -0.073,-0.186 -0.234,-0.323 -0.161,-0.137 -0.435,-0.21 -0.266,-0.08 -0.653,-0.08 h -1.032 z m 0,3.184 h -0.58 v -5.707 h 1.757 q 0.87,0 1.37,0.379 0.508,0.379 0.508,1.144 0,0.597 -0.379,1.008 -0.37,0.403 -1.08,0.468 l 1.645,2.708 h -0.71 l -1.564,-2.652 h -0.967 z m 4.786,0 h -0.58 v -5.707 h 0.58 z m 5.762,-4.659 q -0.29,-0.307 -0.693,-0.484 -0.403,-0.177 -0.936,-0.177 -0.548,0 -0.983,0.201 -0.435,0.202 -0.742,0.54 -0.298,0.339 -0.46,0.79 -0.16,0.444 -0.16,0.936 0,0.491 0.16,0.943 0.162,0.443 0.46,0.782 0.307,0.338 0.742,0.54 0.435,0.202 0.983,0.202 0.444,0 0.847,-0.105 0.411,-0.113 0.734,-0.299 v -1.91 h -1.363 v -0.532 h 1.943 v 2.797 q -0.484,0.282 -1.064,0.435 -0.573,0.146 -1.097,0.146 -0.636,0 -1.185,-0.226 -0.54,-0.226 -0.943,-0.62 -0.395,-0.404 -0.62,-0.952 -0.226,-0.548 -0.226,-1.201 0,-0.653 0.225,-1.202 0.226,-0.548 0.621,-0.943 0.403,-0.403 0.943,-0.629 0.549,-0.225 1.185,-0.225 0.686,0 1.177,0.193 0.5,0.186 0.887,0.572 z m 2.05,-1.048 h 0.58 v 2.475 h 3.113 v -2.475 h 0.58 v 5.707 h -0.58 v -2.7 h -3.112 v 2.7 h -0.58 z m 7.657,5.707 h -0.581 v -5.175 h -1.91 v -0.532 h 4.401 v 0.532 h -1.91 z m 5.615,0 h -0.58 v -5.707 h 3.442 v 0.532 h -2.862 v 1.943 h 2.66 v 0.532 h -2.66 z m 7.986,-2.128 q 0,0.355 -0.088,0.758 -0.081,0.395 -0.315,0.734 -0.234,0.338 -0.645,0.564 -0.403,0.218 -1.04,0.218 -0.645,0 -1.048,-0.218 -0.403,-0.226 -0.637,-0.564 -0.233,-0.339 -0.322,-0.734 -0.08,-0.403 -0.08,-0.758 v -3.58 h 0.58 v 3.516 q 0,0.41 0.08,0.71 0.081,0.29 0.21,0.49 0.137,0.202 0.298,0.323 0.17,0.113 0.33,0.178 0.17,0.064 0.323,0.088 0.153,0.017 0.266,0.017 0.105,0 0.258,-0.017 0.162,-0.024 0.323,-0.088 0.17,-0.065 0.33,-0.178 0.17,-0.12 0.299,-0.322 0.137,-0.202 0.217,-0.492 0.08,-0.298 0.08,-0.71 v -3.514 h 0.581 z m 3.278,2.128 h -0.58 v -5.175 h -1.911 v -0.532 h 4.402 v 0.532 h -1.911 z m 6.878,-2.128 q 0,0.355 -0.088,0.758 -0.081,0.395 -0.315,0.734 -0.234,0.338 -0.645,0.564 -0.403,0.218 -1.04,0.218 -0.645,0 -1.048,-0.218 -0.403,-0.226 -0.637,-0.564 -0.233,-0.339 -0.322,-0.734 -0.08,-0.403 -0.08,-0.758 v -3.58 h 0.58 v 3.516 q 0,0.41 0.08,0.71 0.081,0.29 0.21,0.49 0.137,0.202 0.298,0.323 0.17,0.113 0.33,0.178 0.17,0.064 0.323,0.088 0.153,0.017 0.266,0.017 0.105,0 0.258,-0.017 0.162,-0.024 0.323,-0.088 0.17,-0.065 0.33,-0.178 0.17,-0.12 0.299,-0.322 0.137,-0.202 0.217,-0.492 0.08,-0.298 0.08,-0.71 v -3.514 h 0.581 z m 2.028,-1.056 h 1.032 q 0.387,0 0.653,-0.08 0.274,-0.081 0.436,-0.21 0.16,-0.137 0.233,-0.315 0.073,-0.185 0.073,-0.395 0,-0.201 -0.073,-0.378 -0.072,-0.186 -0.233,-0.323 -0.162,-0.137 -0.436,-0.21 -0.266,-0.08 -0.653,-0.08 h -1.032 z m 0,3.184 h -0.58 v -5.707 h 1.757 q 0.871,0 1.37,0.379 0.509,0.379 0.509,1.144 0,0.597 -0.38,1.008 -0.37,0.403 -1.08,0.468 l 1.645,2.708 h -0.71 l -1.563,-2.652 h -0.968 z m 4.787,-0.532 h 3.055 v 0.532 h -3.635 v -5.707 h 3.539 v 0.532 h -2.959 v 1.943 h 2.765 v 0.532 h -2.765 z m 7.192,-1.5 h 2.475 l -1.234,-2.998 z m -0.847,2.032 h -0.677 l 2.483,-5.707 h 0.565 l 2.483,5.707 h -0.678 l -0.628,-1.499 h -2.919 z m 6.818,-0.822 h 0.016 l 1.435,-4.885 h 0.694 l 1.435,4.885 h 0.016 l 1.354,-4.885 h 0.645 l -1.685,5.707 h -0.677 l -1.435,-4.885 h -0.016 l -1.435,4.885 h -0.677 l -1.685,-5.707 h 0.645 z m 6.972,-1.21 h 2.475 l -1.234,-2.998 z m -0.847,2.032 h -0.677 l 2.483,-5.707 h 0.565 l 2.483,5.707 h -0.678 l -0.628,-1.499 h -2.919 z m 6.204,0 h -0.58 v -5.707 h 0.58 z m 3.376,0 h -0.58 v -5.175 h -1.911 v -0.532 h 4.401 v 0.532 h -1.91 z m 5.5,-4.764 q -0.38,-0.556 -1.105,-0.556 -0.226,0 -0.443,0.064 -0.218,0.057 -0.395,0.186 -0.17,0.12 -0.274,0.322 -0.105,0.194 -0.105,0.46 0,0.387 0.217,0.604 0.218,0.21 0.54,0.347 0.323,0.137 0.702,0.25 0.387,0.105 0.71,0.29 0.322,0.177 0.54,0.476 0.217,0.298 0.217,0.814 0,0.387 -0.17,0.701 -0.16,0.307 -0.434,0.516 -0.266,0.21 -0.605,0.323 -0.33,0.113 -0.67,0.113 -0.523,0 -0.999,-0.194 -0.467,-0.201 -0.798,-0.653 l 0.524,-0.379 q 0.185,0.315 0.516,0.508 0.33,0.186 0.782,0.186 0.218,0 0.435,-0.065 0.218,-0.073 0.387,-0.202 0.178,-0.137 0.29,-0.33 0.113,-0.194 0.113,-0.443 0,-0.299 -0.129,-0.492 -0.12,-0.202 -0.33,-0.33 -0.202,-0.138 -0.468,-0.226 -0.258,-0.09 -0.54,-0.178 -0.274,-0.089 -0.54,-0.201 -0.258,-0.113 -0.468,-0.283 -0.201,-0.177 -0.33,-0.435 -0.121,-0.266 -0.121,-0.661 0,-0.411 0.153,-0.717 0.161,-0.307 0.42,-0.508 0.265,-0.202 0.596,-0.299 0.33,-0.096 0.677,-0.096 0.484,0 0.879,0.153 0.395,0.153 0.733,0.54 z"
         inkscape:connector-curvature="0" />
    </g>
  </g>
  <g
     transform="translate(-2.0054176,-0.34063177)"
     id="g875"
     fill="#fff"
     stroke-width=".202"
     letter-spacing="0"
     font-family="Avenir"
     font-size="8.062"
     style="line-height:1.25;-inkscape-font-specification:Avenir"
     aria-label="A BRIGHT FUTURE AWAITS">
    <path
       inkscape:connector-curvature="0"
       id="path873"
       d="M 3.07,23.018 H 3.73 L 3.4,22.22 Z m -0.225,0.541 h -0.18 l 0.66,-1.52 h 0.151 l 0.662,1.52 H 3.958 L 3.79,23.159 H 3.012 Z M 5.093,23.418 H 5.39 q 0.083,0 0.156,-0.018 0.074,-0.017 0.127,-0.051 0.054,-0.037 0.084,-0.09 0.032,-0.054 0.032,-0.13 0,-0.15 -0.096,-0.223 Q 5.596,22.833 5.409,22.833 H 5.093 Z m 0,-0.714 h 0.312 q 0.056,0 0.11,-0.012 0.055,-0.015 0.098,-0.048 0.045,-0.032 0.073,-0.081 0.028,-0.052 0.028,-0.125 0,-0.023 -0.01,-0.066 Q 5.694,22.329 5.66,22.286 5.628,22.243 5.564,22.213 5.499,22.18 5.39,22.18 H 5.093 Z M 4.939,22.039 h 0.453 q 0.094,0 0.182,0.019 0.088,0.02 0.157,0.064 0.069,0.046 0.11,0.119 0.04,0.073 0.04,0.18 0,0.125 -0.07,0.215 -0.07,0.088 -0.198,0.118 v 0.004 q 0.161,0.013 0.251,0.114 0.093,0.099 0.093,0.266 0,0.037 -0.02,0.108 -0.017,0.07 -0.075,0.142 -0.058,0.068 -0.167,0.12 -0.11,0.051 -0.292,0.051 H 4.939 Z m 1.509,0.671 h 0.275 q 0.103,0 0.174,-0.02 0.073,-0.022 0.116,-0.056 0.043,-0.037 0.062,-0.084 0.02,-0.05 0.02,-0.105 0,-0.054 -0.02,-0.101 Q 7.056,22.294 7.013,22.258 6.97,22.221 6.897,22.202 6.827,22.18 6.723,22.18 H 6.448 Z m 0,0.85 H 6.294 v -1.521 h 0.468 q 0.232,0 0.365,0.1 0.135,0.102 0.135,0.306 0,0.159 -0.1,0.268 -0.1,0.107 -0.288,0.125 l 0.438,0.721 H 7.122 L 6.706,22.853 H 6.448 Z m 1.276,0 H 7.569 V 22.039 H 7.724 Z M 9.259,22.318 Q 9.181,22.236 9.074,22.189 8.966,22.142 8.824,22.142 q -0.145,0 -0.261,0.053 -0.116,0.054 -0.198,0.144 -0.08,0.09 -0.122,0.21 -0.043,0.119 -0.043,0.25 0,0.131 0.043,0.251 0.043,0.118 0.122,0.209 0.082,0.09 0.198,0.144 0.116,0.053 0.262,0.053 0.118,0 0.225,-0.028 0.11,-0.03 0.196,-0.08 V 22.84 H 8.883 V 22.698 H 9.4 v 0.745 q -0.129,0.076 -0.283,0.116 -0.153,0.039 -0.292,0.039 -0.17,0 -0.316,-0.06 -0.144,-0.06 -0.251,-0.166 -0.106,-0.107 -0.166,-0.253 -0.06,-0.146 -0.06,-0.32 0,-0.174 0.06,-0.32 0.06,-0.146 0.166,-0.251 Q 8.365,22.12 8.509,22.06 8.655,22 8.825,22 q 0.182,0 0.313,0.052 0.133,0.049 0.237,0.152 z M 9.805,22.039 H 9.96 v 0.66 h 0.829 v -0.66 h 0.154 v 1.52 h -0.154 v -0.72 h -0.83 v 0.72 H 9.805 Z m 2.04,1.521 H 11.69 v -1.38 h -0.51 v -0.141 h 1.174 v 0.141 h -0.51 z m 1.495,0 h -0.154 v -1.521 h 0.917 v 0.141 h -0.762 v 0.518 h 0.709 v 0.142 h -0.71 z m 2.129,-0.568 q 0,0.095 -0.024,0.202 -0.022,0.105 -0.084,0.196 -0.062,0.09 -0.172,0.15 -0.107,0.058 -0.277,0.058 -0.172,0 -0.279,-0.058 -0.107,-0.06 -0.17,-0.15 -0.062,-0.09 -0.086,-0.196 -0.021,-0.107 -0.021,-0.202 v -0.953 h 0.155 v 0.936 q 0,0.11 0.021,0.19 0.022,0.076 0.056,0.13 0.036,0.054 0.08,0.086 0.044,0.03 0.087,0.047 0.046,0.018 0.086,0.024 0.041,0.004 0.071,0.004 0.028,0 0.069,-0.004 0.043,-0.006 0.086,-0.024 0.045,-0.017 0.088,-0.047 0.045,-0.032 0.08,-0.086 0.036,-0.054 0.057,-0.13 0.022,-0.08 0.022,-0.19 v -0.936 h 0.154 z m 0.873,0.568 h -0.155 v -1.38 h -0.509 v -0.141 h 1.173 v 0.141 h -0.51 z m 1.832,-0.568 q 0,0.095 -0.023,0.202 -0.022,0.105 -0.084,0.196 -0.062,0.09 -0.172,0.15 -0.107,0.058 -0.277,0.058 -0.172,0 -0.28,-0.058 -0.107,-0.06 -0.169,-0.15 -0.062,-0.09 -0.086,-0.196 -0.021,-0.107 -0.021,-0.202 v -0.953 h 0.154 v 0.936 q 0,0.11 0.022,0.19 0.021,0.076 0.056,0.13 0.036,0.054 0.08,0.086 0.044,0.03 0.087,0.047 0.045,0.018 0.086,0.024 0.04,0.004 0.071,0.004 0.028,0 0.069,-0.004 0.043,-0.006 0.086,-0.024 0.045,-0.017 0.088,-0.047 0.045,-0.032 0.08,-0.086 0.036,-0.054 0.057,-0.13 0.022,-0.08 0.022,-0.19 v -0.936 h 0.154 z m 0.541,-0.282 h 0.275 q 0.103,0 0.173,-0.02 0.074,-0.022 0.116,-0.056 0.043,-0.037 0.063,-0.084 0.02,-0.05 0.02,-0.105 0,-0.054 -0.02,-0.101 -0.02,-0.05 -0.063,-0.086 -0.042,-0.037 -0.116,-0.056 -0.07,-0.022 -0.173,-0.022 h -0.275 z m 0,0.85 H 18.56 v -1.521 h 0.468 q 0.232,0 0.365,0.1 0.136,0.102 0.136,0.306 0,0.159 -0.101,0.268 -0.1,0.107 -0.288,0.125 l 0.438,0.721 h -0.189 l -0.417,-0.706 h -0.257 z m 1.275,-0.142 h 0.814 v 0.141 h -0.969 v -1.52 h 0.943 V 22.18 H 19.99 v 0.518 h 0.737 V 22.84 H 19.99 Z m 1.916,-0.4 h 0.66 l -0.33,-0.799 z M 21.68,23.559 H 21.5 l 0.662,-1.52 h 0.15 l 0.661,1.52 h -0.18 l -0.167,-0.4 h -0.778 z m 1.817,-0.219 h 0.004 l 0.382,-1.301 h 0.185 l 0.383,1.301 h 0.004 l 0.36,-1.301 h 0.172 l -0.448,1.52 h -0.18 l -0.383,-1.301 h -0.004 l -0.383,1.301 h -0.18 l -0.45,-1.52 h 0.173 z m 1.857,-0.322 h 0.66 l -0.329,-0.799 z m -0.225,0.541 h -0.18 l 0.66,-1.52 h 0.151 l 0.662,1.52 h -0.18 l -0.168,-0.4 h -0.778 z m 1.653,10e-4 h -0.155 v -1.521 h 0.155 z m 0.898,0 h -0.154 v -1.38 h -0.509 v -0.141 h 1.173 v 0.141 h -0.51 z m 1.466,-1.27 q -0.1,-0.148 -0.294,-0.148 -0.06,0 -0.118,0.017 -0.058,0.015 -0.105,0.05 -0.046,0.032 -0.073,0.085 -0.028,0.052 -0.028,0.123 0,0.103 0.058,0.16 0.058,0.057 0.144,0.093 0.085,0.037 0.186,0.067 0.103,0.028 0.19,0.077 0.085,0.047 0.143,0.127 0.058,0.08 0.058,0.217 0,0.103 -0.045,0.187 -0.043,0.081 -0.116,0.137 -0.07,0.056 -0.16,0.086 -0.089,0.03 -0.18,0.03 -0.139,0 -0.265,-0.052 -0.125,-0.053 -0.213,-0.174 l 0.14,-0.1 q 0.049,0.083 0.137,0.135 0.088,0.05 0.208,0.05 0.058,0 0.116,-0.018 0.058,-0.02 0.103,-0.054 0.048,-0.036 0.078,-0.088 0.03,-0.051 0.03,-0.118 0,-0.08 -0.035,-0.13 -0.032,-0.055 -0.088,-0.089 -0.053,-0.036 -0.124,-0.06 -0.069,-0.024 -0.144,-0.047 -0.073,-0.024 -0.144,-0.054 -0.069,-0.03 -0.125,-0.075 -0.053,-0.047 -0.088,-0.116 -0.032,-0.071 -0.032,-0.176 0,-0.11 0.04,-0.191 0.044,-0.082 0.113,-0.136 0.07,-0.053 0.159,-0.08 Q 28.76,22 28.852,22 q 0.129,0 0.234,0.04 0.105,0.042 0.196,0.145 z" />
  </g>
</svg>
